<?xml version="1.0" encoding="UTF-8"?><svg id="Layer_1" xmlns="http://www.w3.org/2000/svg" xmlns:xlink="http://www.w3.org/1999/xlink" viewBox="0 0 3010 3000"><defs><style>.cls-1{fill:#f06;}.cls-2{fill:#00ecff;}.cls-3{fill:#ffeb3b;}.cls-4{fill:#03a9f4;}.cls-5{fill:#e91e63;}.cls-6{fill:#ff00cd;}.cls-7{fill:#009688;}.cls-8{fill:#2196f3;}.cls-9{fill:#00bcd4;}.cls-10{fill:#cddc39;}.cls-11{fill:#f44336;}.cls-12{fill:#4caf50;}.cls-13{clip-path:url(#clippath);}.cls-14{fill:#00ff35;}.cls-15{fill:none;}.cls-16{fill:#9c27b0;}.cls-17{fill:#f9ff00;}.cls-18{fill:#d700ff;}.cls-19{fill:#ff8200;}.cls-20{fill:#20f;}</style><clipPath id="clippath"><rect class="cls-15" width="3010" height="3000"/></clipPath></defs><path class="cls-18" d="m1372.07,2596.79c5.16,9.25,10.7,18.3,16.63,27.16,30.99,46.34,66.65,79.06,107,98.17,45,21.64,92.37,27.33,142.11,17.09,34.16-7.49,60.71-34.01,79.65-79.57-48.9-38.38-96.68-78.54-143.35-120.46-9.38,15.9-19.64,23.69-30.81,23.35-20.08-1.41-37.35-8.92-51.8-22.53-5.99-5.81-10.94-12.21-14.85-19.21-5.93-10.62-9.44-22.6-10.55-35.95-.25-28.53,5.55-47.18,17.39-55.93,9.55-7.63,22.4-7.53,38.53.3,7.95,3.7,16.33,8.48,25.15,14.36l80.83,56.93c19.11,10.88,33.26,16.43,42.46,16.63,14.89,1.81,30.94-.63,48.16-7.31,19.97-7.43,47.63-21.23,82.97-41.41l8.06-4.51-89.25-160.95c-22.19,16.33-43.64,23.66-64.34,22.02-8.82-.74-18.59-3.59-29.31-8.56-1.65-.57-7.29-3.66-16.91-9.27-31.07-20.18-50.67-32.35-58.8-36.52-14.22-7.98-29.1-14.11-44.64-18.39-31.67-9.19-64.78-4.18-99.35,15.02-71.41,43.36-97.27,114.81-77.57,214.34,8.56,41.29,22.75,79.69,42.57,115.21h0Zm0,0"/><path class="cls-18" d="m1825.65,2203.02l10.48-3.74c22.45-4.75,45.33,1.77,68.63,19.55,23.37,17.95,41.58,43.53,54.62,76.74,11.43,32.18,13.8,61.15,7.11,86.9-2.19,8.27-5.32,15.72-9.4,22.34l-6.8,9.15c-4.99,5.62-10.88,10.07-17.67,13.34-21.25,9.15-43.83,6.48-67.75-8-23.92-14.49-43.71-37.49-59.39-69.01-14.62-32.02-20.04-61.88-16.25-89.59,3.8-27.7,15.94-46.93,36.42-57.69"/><path d="m1340.66,2337.84c13.89-28.61,36.03-52.15,66.41-70.59,34.56-19.2,67.68-24.21,99.35-15.02,15.54,4.28,30.42,10.41,44.64,18.39,8.13,4.17,27.73,16.34,58.8,36.52,9.62,5.61,15.25,8.7,16.91,9.27,10.71,4.98,20.48,7.83,29.31,8.56,20.71,1.64,42.16-5.7,64.34-22.02l75.13,135.49,39.23-22.96-92.3-159.47c-24.11,19.02-46.44,27.58-66.98,25.68-15.55-1.82-28.62-5.54-39.19-11.16l-12.64-6.66c-33.97-21.55-55.07-34.2-63.3-37.96-17.44-7.98-29.97-12.35-37.59-13.12-35.97-5.98-69.95-.88-101.95,15.33-33.89,19.11-60.6,55.68-80.15,109.72h0Zm0,0"/><path d="m1476.66,2520.78c3.91,7,8.86,13.4,14.85,19.21,14.45,13.61,31.71,21.12,51.8,22.53,11.16.34,21.43-7.45,30.81-23.35,41.75,37.5,84.39,73.59,127.93,108.26l27.18-37.59-140.02-114.92c-23.15,34.19-50.66,38.75-82.51,13.66-6-4.75-11.05-10.82-15.18-18.21-2.57-4.61-4.77-9.72-6.62-15.36-3.62-12.22-3.05-23.42,1.72-33.6,3.16-8.04,12.55-13.14,28.17-15.28-12.78-4.6-23.21-3.68-31.28,2.77-11.85,8.75-17.65,27.39-17.39,55.93,1.11,13.35,4.63,25.33,10.55,35.95h0Zm0,0"/><path d="m1793.94,2240.65c6.03-17.16,16.6-29.7,31.71-37.63l10.48-3.74c22.45-4.75,45.33,1.77,68.63,19.55,16.56,12.72,30.53,29.27,41.9,49.65,4.68,8.38,8.91,17.41,12.72,27.09,11.43,32.18,13.8,61.15,7.11,86.9-.82,3.08-1.77,6.05-2.84,8.9h0c5.73-6.76,10.5-13.13,14.33-19.11,10.15-16.07,15.81-32.17,16.97-48.3,1.16-32.4-6.08-62.61-21.71-90.61-5.76-10.33-12.68-20.36-20.73-30.1-2.08-3.21-9.56-10.25-22.42-21.11-10.61-8.09-21.38-14.3-32.31-18.62-22.36-8.59-41.56-9.15-57.6-1.66-15.23,6.35-27.53,19.84-36.92,40.45-4.19,10.06-7.3,22.84-9.32,38.34h0Zm0,0"/><path class="cls-8" d="m955.6,1828.12c-4.39,9.14-8.41,18.48-12.08,28-19.16,49.82-25.09,95.79-17.77,137.9,7.9,47.15,29.58,87.36,65.05,120.64,24.71,22.59,60.12,28.74,106.22,18.42,3.05-59.45,8.11-119,15.16-178.65-17.62,1.44-29.38-2.3-35.27-11.23-9.98-16.49-13.63-34.15-10.95-52.97,1.24-7.9,3.52-15.3,6.84-22.22,5.04-10.5,12.48-19.86,22.31-28.1,22.19-15.94,39.98-21.69,53.36-17.25,11.24,3.27,18.25,13.38,21.02,30.32,1.49,8.26,2.38,17.46,2.64,27.6l.06,94.67c2.03,20.96,5.5,35.09,10.41,42.4,6.8,12.65,17.57,23.87,32.3,33.66,16.84,11.53,42.9,25.55,78.19,42.07l7.98,3.82,76.7-158.66c-25.02-8.36-42.6-21.09-52.74-38.2-4.29-7.31-7.45-16.53-9.47-27.66-.47-1.6-1.16-7.72-2.07-18.35-1.36-35.45-2.65-57.5-3.87-66.16-1.6-15.53-5.01-30.56-10.24-45.08-10.29-29.85-32.48-53-66.58-69.45-73.34-31.95-143.52-12.76-210.53,57.58-27.58,29.48-49.81,61.78-66.66,96.89h0Zm0,0"/><path class="cls-8" d="m1514.04,1965.77l8.71,6.14c16.11,14.95,23.63,36.44,22.57,64.49-1.15,28.19-11.12,56.55-29.92,85.09-18.87,26.7-40.23,44.54-64.08,53.52-7.68,2.85-15.24,4.51-22.67,4.98l-10.91-.27c-7.16-.81-13.89-2.96-20.19-6.46-18.89-11.58-29.26-30.72-31.12-57.43-1.86-26.71,5.21-54.9,21.23-84.56,16.99-29.12,37.37-49.83,61.14-62.15,23.77-12.32,45.52-13.43,65.24-3.34"/><path d="m1140.91,1660.64c30.06-4.92,60.68-.59,91.89,13.01,34.1,16.45,56.29,39.6,66.58,69.45,5.23,14.53,8.64,29.55,10.24,45.08,1.22,8.66,2.51,30.72,3.87,66.16.91,10.62,1.6,16.74,2.07,18.35,2.02,11.13,5.18,20.35,9.47,27.66,10.15,17.11,27.73,29.84,52.74,38.2l-64.57,133.56,39.62,18.02,73.86-160.23c-28.19-8.38-47.21-21.12-57.06-38.25-7.16-13.18-11.45-25.45-12.89-36.82l-1.77-13.56c-1.88-38.48-3.62-61.97-5.22-70.48-3.38-18.05-6.88-30.27-10.48-36.66-15.16-31.45-37.91-55.23-68.25-71.32-33.65-15.97-77.02-16.7-130.09-2.18h0Zm0,0"/><path d="m1072.79,1868.02c-3.32,6.91-5.6,14.32-6.84,22.22-2.68,18.82.98,36.47,10.95,52.97,5.9,8.93,17.66,12.67,35.27,11.23-6.31,53.36-11.02,106.65-14.12,159.85l44.41.53,12.66-172.99c-39.53.75-58.27-18.26-56.22-57.03.41-7.31,2.37-14.62,5.88-21.93,2.18-4.55,4.97-9.1,8.36-13.66,7.57-9.57,16.65-15.31,27.24-17.2,8.03-1.97,17.2,2.57,27.51,13.62-3.45-12.54-9.93-20.19-19.43-22.95-13.39-4.44-31.18,1.31-53.36,17.25-9.83,8.24-17.27,17.61-22.31,28.1h0Zm0,0"/><path d="m1467.09,1961.72c16.75-4.75,32.4-3.4,46.94,4.05l8.71,6.14c16.11,14.95,23.63,36.44,22.57,64.49-.82,19.98-6.06,40.04-15.73,60.19-3.98,8.29-8.71,16.59-14.18,24.9-18.87,26.7-40.23,44.54-64.08,53.52-2.86,1.06-5.71,1.96-8.54,2.69,8.45.75,16.07.97,22.87.67,18.18-.93,33.9-5.38,47.15-13.37,26-16.98,45.64-39.31,58.93-66.99,4.91-10.22,8.95-21.16,12.12-32.83,1.36-3.4,2.74-13.13,4.15-29.2.48-12.76-.61-24.62-3.25-35.56-5.61-22.24-15.78-37.57-30.49-46-13.37-8.41-30.71-10.6-52.02-6.57-10.19,2.27-21.9,6.89-35.14,13.86h0Zm0,0"/><path class="cls-5" d="m1297.43,1172.29c-.66,9.41-.94,18.86-.84,28.35.52,49.64,11.16,91.41,31.91,125.32,23,38.05,55.53,65.38,97.6,81.99,29.11,11.06,61.83,4.23,98.15-20.5-17.74-52.44-33.79-105.66-48.15-159.65-14.74,7.29-26.19,8.09-34.34,2.39-14.28-10.84-23.49-24.85-27.63-42.03-1.64-7.25-2.2-14.44-1.7-21.55.76-10.81,3.97-21.45,9.65-31.94,13.72-21.39,27.12-32.46,40.22-33.21,10.84-1.03,20.36,5.31,28.57,19,4.12,6.63,8.04,14.28,11.75,22.96l32.51,81.82c8.94,17.43,16.79,28.45,23.54,33.09,10.22,8.61,23.37,14.61,39.46,18.02,18.51,4.19,45.85,7.38,82.02,9.57l8.21.56,11.91-163.45c-24.49,1.35-44.06-3.63-58.69-14.94-6.22-4.85-12.11-11.74-17.67-20.67-.96-1.23-3.65-6.28-8.08-15.15-13.33-30.18-22-48.8-26.03-55.88-6.71-12.87-14.81-24.69-24.31-35.46-19.13-22.28-46.25-34.69-81.37-37.21-74.36-2.48-128.45,38.18-162.26,121.96-13.74,34.95-21.88,70.48-24.41,106.62h0Zm0,0"/><path class="cls-5" d="m1827.4,1099.81l9.64,2.32c19.05,7.4,32.93,23.4,41.63,48.01,8.67,24.77,9.77,52.71,3.31,83.82-7.16,29.56-19.5,52.3-37.05,68.24-5.66,5.1-11.63,9.12-17.9,12.07l-9.52,3.5c-6.46,1.76-13.02,2.2-19.67,1.34-20.3-3.54-35.83-16.53-46.6-38.98-10.77-22.45-14.31-49.25-10.64-80.38,4.7-30.99,15.22-55.89,31.55-74.69,16.33-18.8,34.75-27.21,55.25-25.25"/><path d="m1400.21,963.96c24.3-14.56,52.27-21.31,83.9-20.26,35.12,2.53,62.24,14.93,81.37,37.21,9.5,10.77,17.6,22.59,24.31,35.46,4.03,7.07,12.7,25.7,26.03,55.88,4.43,8.87,7.12,13.92,8.08,15.15,5.56,8.93,11.45,15.82,17.67,20.67,14.63,11.31,34.2,16.29,58.69,14.94l-10.02,137.6,40.43,2,8.91-163.84c-27.24,2.42-48.05-2.08-62.44-13.5-10.7-8.94-18.62-18.07-23.77-27.41l-6.18-11.12c-14.82-32.62-24.38-52.33-28.68-59.14-9.11-14.45-16.32-23.81-21.62-28.1-23.89-21.99-51.71-34.74-83.46-38.26-34.57-2.27-72.31,11.97-113.21,42.72h0Zm0,0"/><path d="m1412.43,1166.6c-.5,7.12.07,14.3,1.7,21.55,4.14,17.18,13.35,31.19,27.63,42.03,8.16,5.7,19.6,4.9,34.34-2.39,12.84,48.3,27.04,95.98,42.59,143.04l38.58-14.77-48.37-153.9c-33.92,14.2-56.64,4.2-68.16-30.02-2.15-6.46-2.97-13.45-2.44-20.97.33-4.69,1.18-9.58,2.55-14.67,3.26-10.87,9.14-18.94,17.65-24.21,6.27-4.46,15.75-3.68,28.45,2.34-7.29-9.66-15.51-14.05-24.67-13.18-13.09.75-26.5,11.82-40.22,33.21-5.68,10.49-8.89,21.14-9.65,31.94h0Zm0,0"/><path d="m1785.43,1112.41c12.85-9.85,26.84-14.05,41.97-12.6l9.64,2.32c19.05,7.4,32.93,23.4,41.63,48.01,6.15,17.55,8.49,36.7,7.03,57.43-.6,8.53-1.84,17.32-3.72,26.39-7.16,29.56-19.5,52.3-37.05,68.24-2.11,1.9-4.26,3.65-6.46,5.25,7.57-2.25,14.23-4.67,20-7.27,15.4-7.03,27.46-16.27,36.18-27.73,16.65-23.59,25.98-49.63,27.98-78.12.73-10.51.48-21.36-.78-32.54.01-3.41-2.13-12.3-6.43-26.66-3.96-11.19-8.96-21.07-15.01-29.62-12.48-17.3-26.52-27.07-42.13-29.31-14.44-2.68-30.18,1.37-47.22,12.16-8.03,5.46-16.57,13.47-25.63,24.04h0Zm0,0"/><path class="cls-9" d="m1840.53,1394.24c-9.86-1.59-19.8-2.78-29.82-3.57-52.42-4.15-97.5,3.12-135.23,21.82-42.32,20.66-74.23,52.4-95.73,95.22-14.43,29.66-10.31,64.82,12.34,105.48,57-13.76,114.66-25.66,172.98-35.7-6.29-16.24-6.05-28.39.73-36.46,12.78-14.04,28.44-22.43,46.96-25.17,7.81-1.04,15.44-.96,22.9.24,11.32,1.82,22.25,6.22,32.79,13.2,21.27,16.5,31.68,31.69,31.23,45.57.06,11.53-7.52,20.98-22.75,28.34-7.38,3.72-15.83,7.13-25.33,10.22l-89.4,26.56c-19.23,7.78-31.6,15.02-37.13,21.71-10.04,9.96-17.62,23.27-22.75,39.93-6.17,19.13-12.12,47.67-17.85,85.63l-1.37,8.6,171.32,28.02c.89-25.97,7.99-46.14,21.31-60.51,5.7-6.1,13.53-11.67,23.47-16.69,1.39-.89,6.97-3.25,16.75-7.09,33.1-11.21,53.57-18.6,61.41-22.18,14.22-5.86,27.46-13.29,39.71-22.29,25.32-18.07,40.97-45.52,46.96-82.33,9.65-78.21-28.13-139.12-113.32-182.73-35.57-17.8-72.29-29.75-110.18-35.84h0Zm0,0"/><path class="cls-9" d="m1866.88,1960.21l-3.36,9.95c-9.61,19.4-27.8,32.52-54.59,39.38-26.95,6.8-56.53,5.33-88.74-4.43-30.5-10.35-53.33-25.53-68.48-45.54-4.85-6.46-8.53-13.13-11.05-20.02l-2.79-10.38c-1.24-6.98-1.09-13.95.45-20.88,5.65-21.08,20.82-36.23,45.53-45.47,24.71-9.24,53.31-10.45,85.81-3.62,32.25,7.89,57.53,21.34,75.82,40.35,18.29,19,25.43,39.23,21.41,60.68"/><path d="m2050.6,1522.37c13.06,27.01,17.54,57.16,13.44,90.43-5.99,36.81-21.64,64.25-46.96,82.33-12.25,9-25.49,16.43-39.71,22.29-7.84,3.58-28.31,10.97-61.41,22.18-9.78,3.84-15.36,6.2-16.75,7.09-9.94,5.02-17.77,10.59-23.47,16.69-13.32,14.37-20.42,34.54-21.31,60.51l-144.22-23.59-5.93,42.46,172.01,24.89c.02-28.97,6.74-50.5,20.15-64.6,10.44-10.45,20.83-17.94,31.17-22.49l12.31-5.46c35.81-12.55,57.52-20.77,65.11-24.66,16.1-8.25,26.67-14.97,31.69-20.16,25.46-23.12,41.55-51.27,48.26-84.43,5.66-36.25-5.79-77.41-34.37-123.48h0Zm0,0"/><path d="m1835.66,1516.09c-7.46-1.2-15.09-1.28-22.9-.24-18.52,2.74-34.17,11.13-46.96,25.17-6.78,8.07-7.02,20.22-.73,36.46-52.17,8.98-103.81,19.45-154.93,31.41l11.93,42.1,166.93-36.47c-11.77-37.13.93-60.15,38.12-69.07,7.02-1.66,14.47-1.86,22.35-.59,4.91.79,9.99,2.15,15.24,4.07,11.16,4.46,19.12,11.44,23.88,20.91,4.1,7.04,2.39,16.96-5.16,29.79,10.88-6.77,16.29-15.03,16.24-24.78.45-13.89-9.96-29.08-31.23-45.57-10.53-6.98-21.46-11.38-32.79-13.2h0Zm0,0"/><path d="m1857.56,1914.74c9.17,14.49,12.28,29.65,9.32,45.47l-3.36,9.95c-9.61,19.4-27.8,32.52-54.59,39.38-19.1,4.82-39.52,5.48-61.25,1.99-8.94-1.44-18.1-3.58-27.49-6.42-30.5-10.35-53.33-25.53-68.48-45.54-1.8-2.41-3.45-4.84-4.93-7.31,1.66,8.2,3.58,15.46,5.77,21.79,5.96,16.91,14.57,30.51,25.83,40.79,23.31,19.8,49.9,32.1,79.77,36.9,11.02,1.77,22.48,2.52,34.39,2.25,3.6.34,13.18-1.09,28.74-4.26,12.19-3.12,23.08-7.46,32.67-13.03,19.44-11.53,31.07-25.42,34.9-41.68,4.2-14.98,1.41-31.97-8.36-50.97-5-8.99-12.64-18.75-22.93-29.31h0Zm0,0"/><path class="cls-11" d="m211.73,2827.06c8.4,7.52,17.11,14.7,26.13,21.56,47.23,35.88,94.44,56.45,141.64,61.69,52.76,6.18,102.38-4.5,148.88-32.04,31.76-19.37,49.28-55.24,52.56-107.63-62.48-21.68-124.46-45.52-185.93-71.53-3.92,19.25-11.56,30.64-22.91,34.16-20.69,5.53-40.66,3.96-59.91-4.72-8.04-3.77-15.23-8.5-21.59-14.19-9.64-8.63-17.33-19.47-23.07-32.51-10.13-28.62-10.76-49.38-1.87-62.28,6.97-10.98,19.93-15.33,38.87-13.04,9.28.96,19.37,2.88,30.27,5.73l101.03,29.27c22.99,4.33,39.15,5.01,48.47,2.02,15.61-3.34,30.91-11.35,45.92-24.03,17.52-14.39,40.56-37.86,69.12-70.39l6.54-7.34-145.53-131c-16.67,24.1-35.7,38.92-57.1,44.44-9.13,2.32-19.94,2.83-32.45,1.54-1.86,0-8.6-1.16-20.22-3.48-38.24-9.53-62.17-14.99-71.8-16.37-17.07-3.1-34.16-4.12-51.27-3.04-35.04,1.73-66.62,18.24-94.73,49.52-56.82,68.36-58.09,149.19-3.8,242.49,22.91,38.56,50.48,72.28,82.73,101.15h0Zm0,0"/><path class="cls-11" d="m531.64,2273.84l9.25-7.4c20.94-12.56,46.21-13.92,75.81-4.11,29.73,9.97,56.9,29.39,81.52,58.29,22.65,28.41,35.06,56.73,37.25,84.96.66,9.08.09,17.66-1.72,25.73l-3.67,11.55c-3.08,7.39-7.46,13.9-13.15,19.54-18.21,16.57-41.85,21.7-70.93,15.41-29.07-6.29-56.96-22.57-83.64-48.85-25.81-27.15-41.59-55.31-47.37-84.5-5.78-29.18-.23-52.73,16.66-70.64"/><path d="m90.44,2577.44c4.06-33.59,18.18-64.93,42.36-94.02,28.12-31.29,59.7-47.8,94.73-49.52,17.12-1.07,34.21-.06,51.27,3.04,9.62,1.38,33.56,6.84,71.8,16.37,11.62,2.32,18.36,3.48,20.22,3.48,12.5,1.29,23.32.78,32.45-1.54,21.4-5.52,40.43-20.34,57.1-44.44l122.51,110.28,31.5-36.69-148.08-128.45c-17.67,27.48-37.17,43.82-58.49,49.03-16.28,3.55-30.71,4.34-43.29,2.35l-15.02-2.32c-41.64-9.91-67.25-15.33-76.82-16.27-20.31-1.98-34.43-2.04-42.36-.18-38.26,6.44-70.68,23.35-97.25,50.74-27.47,30.96-41.68,77-42.63,138.13h0Zm0,0"/><path d="m290.62,2714.38c6.35,5.69,13.55,10.41,21.59,14.19,19.25,8.68,39.22,10.25,59.91,4.72,11.35-3.53,18.99-14.92,22.91-34.16,54.99,23.27,110.38,44.8,166.18,64.6l14.33-47.23-180.66-67.1c-11.45,42.41-37.54,56.52-78.27,42.32-7.68-2.7-14.87-7.05-21.57-13.06-4.18-3.74-8.17-8.13-11.98-13.15-7.87-11.04-11.18-22.5-9.91-34.4.39-9.18,8.07-17.56,23.05-25.13-14.45-.2-24.62,4.34-30.51,13.62-8.89,12.91-8.26,33.67,1.87,62.28,5.74,13.04,13.43,23.88,23.07,32.51h0Zm0,0"/><path d="m512.77,2322.67c.12-19.34,6.41-35.62,18.87-48.84l9.25-7.4c20.94-12.56,46.21-13.92,75.81-4.11,21.06,7.06,40.85,18.87,59.35,35.44,7.61,6.81,15,14.43,22.18,22.85,22.65,28.41,35.06,56.73,37.25,84.96.25,3.38.32,6.7.23,9.94,3.42-8.78,6.02-16.85,7.8-24.2,4.65-19.68,4.76-37.84.34-54.46-10.06-33-27.8-60.87-53.22-83.64-9.38-8.4-19.8-16.1-31.27-23.1-3.21-2.51-13.16-7-29.87-13.46-13.47-4.47-26.46-6.98-38.95-7.55-25.47-.9-44.98,5.2-58.52,18.29-13.12,11.66-20.82,29.48-23.13,53.47-.73,11.57.57,25.5,3.9,41.8h0Zm0,0"/><path class="cls-7" d="m248.28,211.87c-8.79,5.69-17.36,11.74-25.71,18.16-43.69,33.56-73.66,70.86-89.89,111.89-18.43,45.78-20.98,92.87-7.65,141.27,9.6,33.2,37.48,57.67,83.64,73.4,34.69-50.71,71.2-100.44,109.52-149.18-16.29-8.22-24.63-17.84-25.02-28.88.09-19.9,6.38-37.41,18.86-52.55,5.35-6.28,11.34-11.58,17.99-15.88,10.09-6.54,21.68-10.78,34.77-12.74,28.12-2.1,46.89,2.42,56.28,13.54,8.14,8.93,8.87,21.6,2.19,38.02-3.13,8.08-7.31,16.66-12.53,25.73l-50.91,83.41c-9.5,19.55-14.05,33.87-13.65,42.95-.82,14.8,2.62,30.48,10.32,47.03,8.62,19.22,24.03,45.6,46.22,79.15l4.98,7.66,152.96-98.44c-17.54-20.83-26.17-41.51-25.89-62.03.16-8.75,2.34-18.57,6.55-29.46.45-1.67,3.14-7.43,8.05-17.27,17.88-31.95,28.62-52.07,32.21-60.36,6.95-14.54,12.03-29.61,15.25-45.21,7.01-31.83-.07-64.16-21.25-97.01-47.39-67.62-119.54-88.5-216.42-62.63-40.16,11.12-77.12,27.6-110.87,49.45h0Zm0,0"/><path class="cls-7" d="m666.01,633.73l4.37,10.1c6.14,21.84,1.19,44.82-14.84,68.95-16.19,24.21-40.24,43.82-72.15,58.84-31,13.36-59.41,17.57-85.25,12.63-8.3-1.62-15.85-4.23-22.65-7.82l-9.45-6.11c-5.87-4.56-10.64-10.08-14.31-16.56-10.4-20.37-9.23-42.81,3.51-67.34,12.74-24.52,34.14-45.54,64.22-63.04,30.63-16.5,59.73-23.77,87.3-21.82s47.32,12.68,59.25,32.18"/><path d="m501.65,164.13c29.12,11.85,53.76,32.15,73.92,60.92,21.18,32.85,28.26,65.18,21.25,97.01-3.22,15.61-8.3,30.68-15.25,45.21-3.59,8.29-14.32,28.41-32.21,60.36-4.91,9.85-7.6,15.61-8.05,17.27-4.21,10.89-6.4,20.71-6.55,29.46-.27,20.53,8.36,41.21,25.89,62.03l-128.77,82.87,25.19,37.2,151.3-101.36c-20.32-22.55-30.2-44.02-29.66-64.4.8-15.46,3.62-28.58,8.47-39.37l5.75-12.9c19.05-34.9,30.17-56.53,33.34-64.89,6.73-17.72,10.24-30.36,10.5-37.93,3.58-35.86-3.66-69.05-21.72-99.56-21.04-32.18-58.84-56.17-113.4-71.95h0Zm0,0"/><path d="m330.01,310.1c-6.65,4.3-12.64,9.6-17.99,15.88-12.48,15.13-18.77,32.65-18.86,52.55.39,11.03,8.73,20.66,25.02,28.88-34.29,43.6-67.11,88-98.49,133.18l38.83,24.38,104.28-145.54c-35.22-20.62-41.49-47.45-18.82-80.49,4.3-6.22,9.96-11.6,16.98-16.15,4.38-2.83,9.28-5.34,14.71-7.52,11.82-4.36,22.9-4.52,33.25-.48,8.14,2.59,13.77,11.52,16.9,26.8,3.71-12.9,2.12-23.13-4.76-30.67-9.4-11.12-28.16-15.63-56.28-13.54-13.09,1.96-24.68,6.21-34.77,12.74h0Zm0,0"/><path d="m626.84,604.89c17.31,4.84,30.36,14.45,39.17,28.84l4.37,10.1c6.14,21.84,1.19,44.82-14.84,68.95-11.47,17.16-26.89,32-46.26,44.54-7.96,5.16-16.6,9.92-25.89,14.3-31,13.36-59.41,17.57-85.25,12.63-3.09-.6-6.08-1.34-8.96-2.22,7.04,5.21,13.63,9.51,19.78,12.9,16.51,8.97,32.75,13.51,48.73,13.61,32.03-.96,61.35-10.05,87.96-27.28,9.82-6.36,19.27-13.82,28.35-22.39,3.03-2.26,9.48-10.09,19.36-23.48,7.29-10.98,12.72-22.01,16.28-33.07,7.03-22.61,6.33-41.58-2.1-56.92-7.25-14.61-21.34-25.87-42.28-33.79-10.19-3.49-23-5.72-38.41-6.71h0Zm0,0"/><path class="cls-4" d="m1055.24,2271.28c-9.86-1.59-19.81-2.78-29.83-3.57-52.42-4.15-97.5,3.13-135.22,21.82-42.33,20.66-74.23,52.4-95.73,95.22-14.42,29.66-10.31,64.82,12.34,105.48,57-13.76,114.66-25.66,172.98-35.7-6.29-16.24-6.05-28.39.73-36.46,12.78-14.03,28.44-22.43,46.96-25.17,7.81-1.04,15.44-.96,22.9.24,11.33,1.82,22.25,6.22,32.78,13.2,21.27,16.5,31.68,31.69,31.24,45.57.06,11.53-7.53,20.98-22.76,28.34-7.38,3.73-15.82,7.13-25.33,10.23l-89.39,26.56c-19.23,7.78-31.61,15.02-37.13,21.71-10.05,9.96-17.62,23.27-22.75,39.93-6.17,19.13-12.12,47.67-17.85,85.63l-1.37,8.6,171.32,28.02c.89-25.97,8-46.14,21.31-60.51,5.7-6.1,13.53-11.67,23.48-16.69,1.39-.89,6.97-3.25,16.75-7.09,33.1-11.21,53.57-18.6,61.41-22.18,14.22-5.86,27.45-13.29,39.71-22.29,25.32-18.07,40.97-45.52,46.96-82.33,9.65-78.22-28.13-139.12-113.32-182.73-35.57-17.8-72.29-29.74-110.18-35.84h0Zm0,0"/><path class="cls-4" d="m1081.57,2837.25l-3.35,9.95c-9.61,19.4-27.81,32.52-54.59,39.38-26.95,6.81-56.53,5.33-88.74-4.43-30.5-10.35-53.33-25.53-68.49-45.54-4.84-6.46-8.53-13.13-11.05-20.02l-2.8-10.37c-1.24-6.99-1.09-13.95.45-20.88,5.65-21.08,20.83-36.24,45.53-45.48,24.71-9.23,53.31-10.44,85.81-3.62,32.25,7.89,57.52,21.34,75.81,40.35,18.29,19,25.43,39.23,21.41,60.68"/><path d="m1265.3,2399.41c13.06,27.01,17.54,57.16,13.44,90.43-5.99,36.81-21.64,64.25-46.96,82.33-12.25,9-25.49,16.43-39.71,22.29-7.84,3.58-28.31,10.97-61.41,22.18-9.78,3.84-15.36,6.2-16.75,7.09-9.95,5.02-17.77,10.59-23.48,16.69-13.32,14.37-20.42,34.54-21.31,60.51l-144.22-23.59-5.93,42.46,172.01,24.89c.02-28.97,6.74-50.5,20.15-64.6,10.44-10.45,20.83-17.95,31.17-22.49l12.32-5.46c35.81-12.55,57.52-20.77,65.11-24.66,16.1-8.25,26.66-14.97,31.69-20.16,25.46-23.13,41.55-51.27,48.26-84.43,5.66-36.26-5.79-77.42-34.37-123.48h0Zm0,0"/><path d="m1050.36,2393.14c-7.46-1.2-15.09-1.28-22.9-.24-18.52,2.74-34.18,11.14-46.96,25.17-6.78,8.07-7.02,20.22-.73,36.46-52.17,8.98-103.81,19.45-154.92,31.41l11.93,42.1,166.93-36.47c-11.77-37.13.93-60.15,38.12-69.07,7.02-1.66,14.47-1.86,22.35-.59,4.91.79,9.99,2.15,15.23,4.07,11.16,4.47,19.12,11.44,23.88,20.91,4.11,7.03,2.39,16.96-5.16,29.79,10.88-6.77,16.29-15.03,16.24-24.78.44-13.89-9.97-29.08-31.24-45.57-10.53-6.98-21.46-11.38-32.78-13.2h0Zm0,0"/><path d="m1072.25,2791.78c9.18,14.49,12.28,29.65,9.32,45.47l-3.35,9.95c-9.61,19.4-27.81,32.52-54.59,39.38-19.1,4.82-39.52,5.48-61.25,1.99-8.94-1.44-18.1-3.58-27.49-6.42-30.5-10.35-53.33-25.53-68.49-45.54-1.8-2.41-3.45-4.84-4.93-7.31,1.65,8.19,3.58,15.46,5.77,21.79,5.96,16.91,14.57,30.51,25.83,40.79,23.31,19.8,49.9,32.1,79.77,36.9,11.02,1.77,22.48,2.52,34.4,2.25,3.59.34,13.17-1.09,28.74-4.26,12.19-3.12,23.08-7.46,32.67-13.03,19.43-11.53,31.07-25.42,34.9-41.68,4.19-14.98,1.41-31.97-8.36-50.97-5-8.98-12.64-18.75-22.93-29.31h0Zm0,0"/><path class="cls-10" d="m394.82,919.83c-9.86-1.59-19.81-2.78-29.83-3.57-52.42-4.15-97.5,3.13-135.22,21.82-42.32,20.66-74.23,52.4-95.73,95.22-14.42,29.66-10.31,64.82,12.34,105.48,57-13.76,114.66-25.66,172.98-35.7-6.29-16.24-6.05-28.39.73-36.46,12.79-14.04,28.44-22.43,46.96-25.17,7.8-1.04,15.44-.96,22.9.24,11.33,1.82,22.25,6.22,32.79,13.2,21.27,16.5,31.68,31.69,31.23,45.57.06,11.53-7.53,20.98-22.76,28.34-7.38,3.72-15.82,7.13-25.33,10.23l-89.4,26.56c-19.23,7.78-31.61,15.02-37.13,21.71-10.05,9.97-17.62,23.27-22.75,39.93-6.17,19.13-12.13,47.67-17.85,85.63l-1.37,8.61,171.32,28.02c.89-25.97,8-46.14,21.31-60.51,5.7-6.1,13.53-11.67,23.48-16.69,1.39-.89,6.97-3.25,16.75-7.09,33.1-11.21,53.57-18.6,61.41-22.18,14.22-5.86,27.45-13.29,39.71-22.29,25.32-18.07,40.97-45.52,46.96-82.33,9.65-78.21-28.13-139.12-113.32-182.73-35.57-17.8-72.29-29.74-110.18-35.84h0Zm0,0"/><path class="cls-10" d="m421.16,1485.8l-3.35,9.95c-9.61,19.4-27.8,32.52-54.59,39.38-26.95,6.81-56.53,5.33-88.74-4.43-30.5-10.35-53.33-25.53-68.48-45.54-4.84-6.46-8.53-13.13-11.05-20.02l-2.8-10.38c-1.24-6.99-1.09-13.95.45-20.88,5.65-21.08,20.83-36.24,45.53-45.48,24.71-9.23,53.31-10.44,85.81-3.62,32.25,7.89,57.52,21.34,75.81,40.35,18.29,19,25.43,39.23,21.41,60.68"/><path d="m604.88,1047.96c13.06,27.01,17.54,57.16,13.44,90.43-5.99,36.81-21.64,64.25-46.96,82.33-12.25,9-25.49,16.43-39.71,22.29-7.84,3.58-28.31,10.97-61.41,22.18-9.78,3.83-15.36,6.2-16.75,7.09-9.95,5.02-17.77,10.59-23.48,16.69-13.32,14.37-20.42,34.54-21.31,60.51l-144.22-23.59-5.93,42.47,172.01,24.89c.02-28.97,6.74-50.5,20.15-64.6,10.44-10.45,20.83-17.94,31.17-22.49l12.32-5.46c35.81-12.55,57.52-20.77,65.11-24.66,16.1-8.25,26.66-14.97,31.69-20.16,25.46-23.12,41.55-51.27,48.26-84.43,5.66-36.26-5.79-77.42-34.37-123.48h0Zm0,0"/><path d="m389.95,1041.68c-7.46-1.2-15.09-1.28-22.9-.24-18.52,2.74-34.18,11.13-46.96,25.17-6.78,8.07-7.02,20.22-.73,36.46-52.17,8.98-103.81,19.45-154.93,31.41l11.93,42.1,166.93-36.47c-11.77-37.13.93-60.15,38.12-69.07,7.02-1.66,14.47-1.85,22.35-.59,4.91.79,9.99,2.15,15.23,4.07,11.16,4.46,19.12,11.44,23.88,20.91,4.11,7.04,2.39,16.97-5.16,29.79,10.88-6.77,16.29-15.03,16.24-24.78.45-13.89-9.96-29.08-31.23-45.57-10.53-6.98-21.46-11.38-32.79-13.2h0Zm0,0"/><path d="m411.84,1440.33c9.18,14.49,12.28,29.65,9.32,45.47l-3.35,9.95c-9.61,19.4-27.8,32.52-54.59,39.38-19.1,4.82-39.52,5.48-61.25,1.99-8.94-1.44-18.11-3.58-27.49-6.42-30.5-10.35-53.33-25.53-68.48-45.54-1.8-2.41-3.45-4.84-4.93-7.31h0c1.66,8.2,3.58,15.46,5.77,21.79,5.96,16.91,14.57,30.51,25.83,40.79,23.31,19.8,49.9,32.1,79.77,36.9,11.02,1.77,22.48,2.52,34.4,2.25,3.59.34,13.17-1.09,28.73-4.26,12.19-3.13,23.08-7.46,32.68-13.03,19.43-11.53,31.07-25.42,34.9-41.68,4.19-14.98,1.41-31.97-8.36-50.97-5-8.99-12.64-18.75-22.93-29.31h0Zm0,0"/><path class="cls-14" d="m1417.93,304.18c-3.82-9.87-8.05-19.61-12.68-29.2-24.22-50.18-54.97-87.53-92.24-112.05-41.52-27.68-87.62-39.91-138.28-36.7-34.85,2.66-64.82,25.22-89.91,67.67,43.05,44.8,84.76,91.19,125.12,139.18,11.49-14.44,22.74-20.71,33.74-18.82,19.68,4.19,35.72,14.03,48.13,29.5,5.12,6.59,9.13,13.62,12.02,21.08,4.39,11.34,6.2,23.69,5.45,37.05-3.72,28.27-12.06,45.92-25,52.93-10.52,6.22-23.21,4.33-38.09-5.67-7.36-4.77-14.98-10.67-22.9-17.71l-72.08-67.6c-17.4-13.43-30.63-20.89-39.71-22.37-14.49-3.86-30.72-3.68-48.69.53-20.8,4.58-50.1,14.39-87.88,29.44l-8.61,3.35,65.93,171.72c24.23-13.07,46.48-17.35,66.75-12.84,8.63,1.95,17.91,6.14,27.82,12.55,1.56.79,6.7,4.64,15.44,11.53,27.94,24.29,45.64,39.07,53.11,44.33,12.96,9.88,26.83,18.01,41.62,24.42,30.07,13.5,63.54,13.16,100.42-1.04,76.72-32.98,112.25-100.1,106.61-201.35-2.73-42.05-11.42-82.03-26.1-119.96h0Zm0,0"/><path class="cls-14" d="m914.19,630.78l-10.9,2.25c-22.88,1.58-44.62-8.05-65.2-28.9-20.63-21.02-35.09-48.87-43.38-83.56-6.84-33.44-5.15-62.44,5.06-87,3.32-7.89,7.46-14.82,12.41-20.81l8-8.11c5.73-4.87,12.17-8.45,19.35-10.75,22.31-6.1,44.29-.32,65.94,17.35,21.66,17.67,38.05,43.19,49.18,76.57,10.02,33.73,11.22,64.04,3.61,90.93-7.61,26.89-22.31,44.23-44.07,52.03"/><path d="m1412.97,564.85c-17.73,26.39-42.91,46.6-75.55,60.63-36.88,14.2-70.36,14.54-100.42,1.04-14.78-6.4-28.66-14.54-41.62-24.42-7.47-5.26-25.17-20.04-53.11-44.33-8.74-6.89-13.88-10.74-15.44-11.53-9.91-6.41-19.18-10.6-27.82-12.55-20.27-4.51-42.52-.23-66.75,12.84l-55.5-144.56-42.02,17.27,69.16,170.68c26.52-15.47,49.8-20.83,69.87-16.09,15.14,3.97,27.55,9.47,37.24,16.5l11.58,8.35c30.62,26.06,49.75,41.52,57.37,46.38,16.15,10.32,27.95,16.39,35.38,18.22,34.77,10.93,69.11,10.61,103.04-.98,36.2-14.2,67.74-46.68,94.6-97.44h0Zm0,0"/><path d="m1303.83,364.85c-2.89-7.47-6.89-14.49-12.02-21.08-12.41-15.48-28.45-25.31-48.13-29.5-11-1.89-22.25,4.38-33.74,18.82-36.1-42.93-73.28-84.58-111.54-124.96l-32.14,33.42,122.59,133.23c27.67-30.62,55.53-31.3,83.56-2.04,5.27,5.53,9.43,12.25,12.49,20.14,1.9,4.92,3.38,10.29,4.41,16.12,1.88,12.6-.24,23.6-6.37,33.02-4.24,7.52-14.25,11.25-30.01,11.21,12.01,6.33,22.46,6.87,31.35,1.61,12.95-7.01,21.28-24.66,25-52.93.75-13.37-1.06-25.72-5.45-37.05h0Zm0,0"/><path d="m950.81,597.95c-8.36,16.14-20.56,27.09-36.62,32.83l-10.9,2.25c-22.88,1.58-44.62-8.05-65.2-28.9-14.62-14.9-26.14-33.22-34.56-54.98-3.46-8.95-6.4-18.47-8.82-28.58-6.84-33.44-5.15-62.44,5.06-87,1.23-2.94,2.59-5.75,4.05-8.42-6.61,5.9-12.23,11.54-16.85,16.92-12.28,14.5-20.12,29.64-23.52,45.44-5.65,31.91-2.7,62.81,8.88,92.71,4.27,11.03,9.71,21.92,16.32,32.68,1.62,3.47,8.04,11.47,19.26,24.01,9.37,9.48,19.16,17.12,29.38,22.93,20.94,11.62,39.86,14.84,56.79,9.66,15.95-4.17,30.01-15.8,42.17-34.89,5.55-9.38,10.41-21.59,14.56-36.65h0Zm0,0"/><path class="cls-17" d="m2375.35,2392.09c-6.82-8.18-13.98-16.09-21.48-23.74-39.23-40.02-80.55-65.71-123.96-77.08-48.48-13.01-96.33-9.83-143.57,9.55-32.35,13.75-53.65,44.89-63.89,93.42,55.45,28.83,110.12,59.61,164.02,92.34,6.3-17.46,15-27.05,26.09-28.8,20.1-2.34,38.55,1.87,55.36,12.63,7,4.63,13.08,10.03,18.24,16.22,7.83,9.39,13.53,20.57,17.12,33.55,5.56,28.14,3.29,47.64-6.78,58.48-8.02,9.31-20.73,11.6-38.12,6.86-8.54-2.17-17.71-5.34-27.52-9.5l-90.44-41.21c-20.9-7.2-35.91-10.04-45.04-8.53-15.05.98-30.46,6.38-46.22,16.18-18.35,11.06-43.1,29.84-74.26,56.34l-7.12,5.96,118.1,142.4c18.89-20.25,38.71-31.49,59.47-33.72,8.85-.92,19.04.08,30.55,3.01,1.74.25,7.88,2.26,18.43,6.02,34.45,14.15,56.07,22.53,64.88,25.14,15.53,5.24,31.37,8.53,47.52,9.87,33,3.19,64.78-7.92,95.35-33.32,62.49-56.12,74.74-131.51,36.77-226.17-16.13-39.19-37.29-74.49-63.48-105.9h0Zm0,0"/><path class="cls-17" d="m2000.5,2865.45l-9.66,5.65c-21.3,8.87-45.11,6.69-71.43-6.55-26.42-13.39-49.17-35.27-68.23-65.66-17.28-29.66-25.01-57.84-23.18-84.53.62-8.58,2.33-16.52,5.13-23.82l5.01-10.29c3.89-6.48,8.88-11.98,14.98-16.47,19.29-12.99,42.1-14.55,68.42-4.69,26.33,9.87,50.16,28.91,71.51,57.13,20.41,28.91,31.31,57.41,32.71,85.48,1.4,28.07-7.02,49.33-25.25,63.76"/><path d="m2454.54,2642.07c-8.4,30.85-25.9,58.22-52.48,82.09-30.57,25.4-62.35,36.5-95.35,33.32-16.15-1.34-31.99-4.63-47.52-9.87-8.81-2.61-30.43-10.99-64.88-25.14-10.54-3.76-16.69-5.77-18.43-6.02-11.51-2.92-21.69-3.93-30.55-3.01-20.76,2.23-40.58,13.47-59.47,33.72l-99.42-119.87-34.48,29.98,120.84,140.37c20.28-23.27,40.75-35.88,61.4-37.82,15.7-1.09,29.3.16,40.79,3.73l13.72,4.22c37.57,14.97,60.77,23.55,69.59,25.73,18.72,4.63,31.91,6.62,39.57,5.97,36.65-.77,69.27-12.14,97.87-34.1,29.92-25.18,49.51-66.28,58.78-123.3h0Zm0,0"/><path d="m2286.17,2486.63c-5.16-6.18-11.23-11.59-18.24-16.22-16.8-10.75-35.26-14.96-55.36-12.63-11.09,1.75-19.79,11.34-26.09,28.8-48.22-29.28-97.06-57.01-146.51-83.16l-19.87,42.19,159.7,87.49c16.51-38.08,42.84-47.7,78.97-28.84,6.8,3.57,12.93,8.63,18.38,15.17,3.4,4.07,6.53,8.72,9.4,13.94,5.85,11.4,7.37,22.57,4.56,33.52-1.62,8.53-9.95,15.31-24.99,20.34,13.48,2.17,23.61-.68,30.39-8.56,10.08-10.85,12.34-30.34,6.78-58.48-3.58-12.98-9.28-24.16-17.12-33.55h0Zm0,0"/><path d="m2024.82,2822.38c-2.77,18.07-10.88,32.43-24.33,43.07l-9.66,5.65c-21.3,8.87-45.11,6.69-71.43-6.55-18.73-9.49-35.6-23.24-50.63-41.26-6.18-7.41-12.05-15.54-17.6-24.4-17.28-29.66-25.01-57.84-23.18-84.53.23-3.19.61-6.3,1.15-9.32-4.4,7.75-7.94,14.93-10.61,21.55-7.04,17.77-9.63,34.72-7.78,50.86,4.88,32.23,17.65,60.72,38.3,85.48,7.62,9.14,16.31,17.76,26.07,25.88,2.66,2.79,11.35,8.34,26.08,16.68,11.98,6.02,23.78,10.15,35.38,12.4,23.69,4.33,42.76,1.3,57.21-9.08,13.86-9.11,23.51-24.72,28.95-46.82,2.27-10.72,2.97-23.92,2.08-39.61h0Zm0,0"/><path class="cls-12" d="m992.95,884.53c-9.86-1.59-19.81-2.78-29.83-3.57-52.42-4.15-97.5,3.12-135.22,21.82-42.32,20.66-74.23,52.4-95.73,95.21-14.42,29.66-10.31,64.82,12.34,105.48,57-13.76,114.66-25.66,172.98-35.7-6.29-16.24-6.05-28.39.73-36.46,12.79-14.04,28.44-22.43,46.96-25.17,7.8-1.04,15.44-.96,22.9.24,11.33,1.82,22.25,6.22,32.79,13.2,21.27,16.49,31.68,31.68,31.23,45.57.06,11.53-7.53,20.98-22.76,28.34-7.38,3.73-15.82,7.13-25.33,10.23l-89.4,26.56c-19.23,7.78-31.61,15.02-37.13,21.71-10.04,9.97-17.62,23.27-22.75,39.93-6.17,19.13-12.12,47.67-17.85,85.63l-1.37,8.6,171.32,28.02c.89-25.97,8-46.14,21.31-60.51,5.7-6.1,13.53-11.67,23.48-16.69,1.39-.89,6.97-3.25,16.75-7.09,33.1-11.21,53.57-18.6,61.41-22.18,14.21-5.86,27.45-13.29,39.71-22.29,25.32-18.07,40.97-45.52,46.96-82.33,9.65-78.21-28.13-139.12-113.32-182.73-35.57-17.8-72.29-29.74-110.18-35.84h0Zm0,0"/><path class="cls-12" d="m1019.28,1450.5l-3.35,9.95c-9.61,19.4-27.8,32.52-54.59,39.38-26.95,6.81-56.53,5.33-88.74-4.43-30.5-10.35-53.33-25.53-68.48-45.54-4.84-6.46-8.53-13.13-11.05-20.02l-2.79-10.38c-1.25-6.99-1.09-13.95.45-20.88,5.65-21.08,20.83-36.24,45.53-45.48,24.71-9.23,53.31-10.44,85.81-3.62,32.25,7.89,57.52,21.34,75.81,40.35,18.29,19,25.43,39.24,21.41,60.68"/><path d="m1203.01,1012.66c13.06,27.01,17.54,57.16,13.44,90.43-5.99,36.81-21.64,64.25-46.96,82.33-12.25,9-25.49,16.43-39.71,22.29-7.84,3.58-28.31,10.97-61.41,22.18-9.78,3.84-15.36,6.2-16.75,7.09-9.95,5.02-17.77,10.59-23.48,16.69-13.32,14.37-20.42,34.54-21.31,60.51l-144.22-23.59-5.93,42.47,172.01,24.89c.02-28.97,6.73-50.5,20.15-64.6,10.44-10.45,20.83-17.95,31.17-22.49l12.32-5.47c35.81-12.55,57.52-20.77,65.11-24.66,16.1-8.25,26.66-14.97,31.69-20.16,25.46-23.13,41.54-51.27,48.25-84.43,5.66-36.26-5.79-77.42-34.37-123.48h0Zm0,0"/><path d="m988.07,1006.39c-7.46-1.2-15.09-1.28-22.9-.24-18.52,2.74-34.18,11.14-46.96,25.17-6.78,8.07-7.02,20.22-.73,36.46-52.17,8.98-103.81,19.45-154.93,31.41l11.93,42.1,166.93-36.47c-11.77-37.13.93-60.15,38.12-69.07,7.02-1.66,14.47-1.85,22.36-.59,4.91.79,9.99,2.15,15.24,4.07,11.16,4.47,19.12,11.44,23.87,20.92,4.11,7.04,2.39,16.97-5.16,29.79,10.88-6.77,16.29-15.03,16.24-24.78.45-13.89-9.96-29.08-31.23-45.57-10.53-6.98-21.46-11.38-32.79-13.2h0Zm0,0"/><path d="m1009.97,1405.03c9.18,14.49,12.28,29.65,9.32,45.47l-3.35,9.95c-9.61,19.4-27.8,32.52-54.59,39.38-19.1,4.82-39.52,5.48-61.25,1.99-8.94-1.44-18.11-3.58-27.49-6.42-30.5-10.35-53.33-25.53-68.48-45.54-1.8-2.41-3.45-4.84-4.93-7.31h0c1.65,8.2,3.58,15.46,5.77,21.79,5.96,16.91,14.57,30.51,25.83,40.79,23.31,19.8,49.9,32.1,79.77,36.9,11.02,1.77,22.48,2.52,34.4,2.26,3.59.33,13.17-1.09,28.74-4.26,12.19-3.12,23.08-7.46,32.67-13.03,19.43-11.53,31.07-25.42,34.9-41.68,4.2-14.98,1.41-31.97-8.36-50.97-5-8.99-12.64-18.76-22.93-29.32h0Zm0,0"/><path class="cls-3" d="m1859.52,134.87c-9.86-1.59-19.8-2.78-29.82-3.57-52.42-4.15-97.5,3.12-135.23,21.82-42.32,20.66-74.23,52.4-95.73,95.22-14.42,29.66-10.31,64.82,12.34,105.48,57-13.76,114.66-25.66,172.98-35.7-6.29-16.24-6.05-28.39.73-36.46,12.79-14.04,28.44-22.43,46.96-25.18,7.81-1.04,15.44-.96,22.9.24,11.33,1.82,22.25,6.22,32.79,13.2,21.27,16.49,31.68,31.68,31.23,45.57.06,11.53-7.52,20.98-22.75,28.34-7.38,3.73-15.83,7.13-25.33,10.23l-89.4,26.56c-19.23,7.78-31.61,15.02-37.13,21.71-10.04,9.97-17.62,23.27-22.74,39.93-6.18,19.13-12.12,47.67-17.85,85.63l-1.37,8.6,171.32,28.02c.89-25.97,7.99-46.14,21.31-60.51,5.7-6.1,13.53-11.67,23.48-16.69,1.39-.89,6.97-3.25,16.75-7.09,33.1-11.21,53.57-18.6,61.41-22.18,14.21-5.86,27.45-13.29,39.71-22.29,25.32-18.07,40.97-45.52,46.96-82.33,9.65-78.22-28.13-139.12-113.32-182.73-35.57-17.8-72.29-29.74-110.18-35.84h0Zm0,0"/><path class="cls-3" d="m1885.86,700.84l-3.36,9.95c-9.61,19.4-27.81,32.52-54.59,39.38-26.95,6.8-56.53,5.33-88.74-4.43-30.5-10.35-53.33-25.53-68.48-45.54-4.84-6.46-8.53-13.13-11.05-20.02l-2.8-10.38c-1.24-6.99-1.09-13.95.45-20.88,5.65-21.08,20.82-36.24,45.53-45.47,24.71-9.24,53.31-10.45,85.81-3.63,32.25,7.9,57.53,21.34,75.82,40.35,18.29,19,25.43,39.24,21.41,60.68"/><path d="m2069.59,263c13.06,27.01,17.54,57.16,13.44,90.43-5.99,36.81-21.64,64.25-46.96,82.33-12.25,9-25.49,16.43-39.71,22.29-7.84,3.58-28.31,10.97-61.41,22.18-9.78,3.84-15.36,6.2-16.75,7.09-9.95,5.02-17.77,10.59-23.48,16.69-13.32,14.37-20.42,34.54-21.31,60.51l-144.22-23.59-5.93,42.47,172.01,24.89c.02-28.97,6.74-50.5,20.15-64.6,10.44-10.45,20.83-17.95,31.17-22.49l12.32-5.46c35.81-12.55,57.51-20.77,65.11-24.66,16.1-8.25,26.66-14.97,31.69-20.16,25.46-23.13,41.55-51.27,48.26-84.43,5.66-36.26-5.79-77.41-34.37-123.48h0Zm0,0"/><path d="m1854.65,256.73c-7.46-1.2-15.09-1.28-22.9-.24-18.52,2.74-34.17,11.14-46.96,25.18-6.78,8.07-7.02,20.22-.73,36.46-52.17,8.98-103.81,19.45-154.93,31.41l11.93,42.1,166.93-36.47c-11.77-37.13.93-60.15,38.12-69.07,7.02-1.66,14.47-1.86,22.35-.59,4.91.79,9.99,2.15,15.23,4.07,11.16,4.47,19.12,11.44,23.87,20.91,4.11,7.04,2.39,16.97-5.16,29.79,10.88-6.77,16.29-15.03,16.23-24.78.45-13.89-9.96-29.08-31.23-45.57-10.53-6.98-21.46-11.38-32.79-13.2h0Zm0,0"/><path d="m1876.54,655.37c9.18,14.49,12.28,29.65,9.32,45.47l-3.36,9.95c-9.61,19.4-27.81,32.52-54.59,39.38-19.1,4.82-39.52,5.48-61.25,1.99-8.94-1.44-18.1-3.58-27.49-6.42-30.5-10.35-53.33-25.53-68.48-45.54-1.8-2.41-3.45-4.84-4.93-7.31h0c1.66,8.2,3.58,15.46,5.77,21.79,5.96,16.91,14.57,30.51,25.83,40.79,23.31,19.8,49.9,32.1,79.77,36.9,11.02,1.77,22.48,2.52,34.39,2.26,3.6.33,13.18-1.09,28.74-4.26,12.19-3.12,23.08-7.46,32.68-13.03,19.44-11.53,31.07-25.42,34.9-41.68,4.2-14.98,1.41-31.97-8.36-50.97-5-8.99-12.64-18.76-22.93-29.32h0Zm0,0"/><path class="cls-20" d="m2348.86,2084.34c10.65-1.31,21.27-3.06,31.85-5.24,55.34-11.4,99.68-32.39,133.03-62.97,37.5-33.98,60.93-76.28,70.31-126.9,6.01-34.93-8.75-69.99-44.29-105.17-54.71,31.25-110.66,60.78-167.84,88.59,11.35,14.88,14.74,27.49,10.16,37.84-8.99,18.31-22.64,31.65-40.93,40.02-7.75,3.41-15.65,5.61-23.71,6.6-12.23,1.51-24.83.24-37.78-3.82-26.89-10.66-42.18-23.22-45.87-37.69-3.51-11.88,1.49-23.9,15-36.06,6.51-6.05,14.2-12.09,23.08-18.13l84.32-54.15c17.51-13.78,28.12-24.95,31.83-33.51,7.38-13.29,11.23-29.29,11.53-48.01.65-21.59-1.75-52.82-7.2-93.71l-1.16-9.29-185.19,22.33c6.85,27.07,5.55,50.01-3.89,68.82-4.06,8.01-10.47,16.09-19.24,24.25-1.16,1.33-6.22,5.44-15.16,12.33-30.8,21.47-49.72,35.22-56.74,41.26-12.92,10.3-24.36,21.93-34.31,34.88-20.72,26.23-28.66,59.23-23.83,99.01,13.45,83.6,70.65,135.16,171.61,154.68,42.03,7.73,83.5,9.07,124.42,4.02h0Zm0,0"/><path class="cls-20" d="m2152.37,1508.12l.49-11.27c4.11-22.9,18.97-41.88,44.56-56.97,25.78-15.09,56.75-22.41,92.91-21.97,34.58,1.55,62.68,10.39,84.3,26.51,6.93,5.21,12.73,11,17.39,17.36l5.99,9.87c3.38,6.84,5.3,14.07,5.78,21.69.48,23.45-10.65,43.63-33.39,60.55-22.73,16.92-51.89,26.73-87.47,29.41-35.65,1.5-65.75-4.82-90.31-18.96-24.56-14.15-37.98-32.88-40.25-56.22"/><path d="m2093.74,2014.94c-21.56-23.97-35.2-53.74-40.92-89.3-4.83-39.78,3.11-72.78,23.83-99.01,9.96-12.95,21.39-24.58,34.31-34.88,7.02-6.04,25.94-19.79,56.74-41.26,8.94-6.89,14-11,15.16-12.33,8.77-8.16,15.18-16.24,19.24-24.25,9.45-18.81,10.75-41.75,3.89-68.82l155.9-18.8-6.58-45.6-184.96,25.77c8.64,29.9,8.15,54.13-1.47,72.69-7.65,13.9-16.13,24.75-25.44,32.53l-11.07,9.32c-33.21,23.66-53.14,38.64-59.82,44.93-14.15,13.33-23.04,23.43-26.67,30.28-19.35,31.48-27.53,65.34-24.54,101.57,5,39.11,29.14,78.16,72.41,117.15h0Zm0,0"/><path d="m2317.43,1957.12c8.06-.99,15.96-3.19,23.71-6.6,18.29-8.37,31.94-21.71,40.93-40.02,4.58-10.35,1.2-22.97-10.16-37.84,51.15-24.88,101.32-51.13,150.49-78.76l-24.91-39.88-161.37,87.58c23.26,34.8,17.03,62.35-18.68,82.68-6.75,3.81-14.38,6.24-22.89,7.29-5.31.66-10.95.77-16.94.36-12.85-1.27-23.15-6.09-30.89-14.44-6.35-6.03-7.54-16.8-3.59-32.29-9.2,10.24-12.32,20.39-9.35,30.43,3.69,14.47,18.98,27.03,45.87,37.69,12.95,4.05,25.55,5.32,37.78,3.82h0Zm0,0"/><path d="m2175.59,1552.26c-13.8-12.21-21.54-26.93-23.22-44.14l.49-11.27c4.11-22.9,18.97-41.88,44.56-56.97,18.27-10.69,39.14-17.49,62.62-20.38,9.66-1.19,19.75-1.72,30.29-1.59,34.58,1.55,62.68,10.39,84.3,26.51,2.59,1.94,5.01,3.97,7.28,6.07h0c-4.16-7.96-8.32-14.88-12.47-20.76-11.22-15.67-24.17-27.13-38.86-34.37-29.98-13.46-61.1-18.2-93.36-14.22-11.9,1.47-23.96,4.12-36.17,7.96-3.81.73-13.27,5.06-28.38,12.99-11.64,6.87-21.59,14.6-29.82,23.22-16.61,17.71-24.46,35.53-23.55,53.45.15,16.72,8.11,33.42,23.88,50.1,7.84,7.78,18.66,15.57,32.43,23.39h0Zm0,0"/><path class="cls-16" d="m824.9,1865.43c1.91-9.67,3.42-19.43,4.55-29.28,5.91-51.54.3-96.22-16.83-134.06-18.9-42.44-49.09-74.99-90.55-97.67-28.75-15.24-63.55-12.41-104.41,8.52,11.59,56.67,21.33,113.92,29.21,171.76,16.23-5.64,28.2-4.98,35.92,1.98,13.4,13.09,21.13,28.81,23.19,47.16.75,7.73.41,15.25-1.03,22.57-2.19,11.1-6.9,21.72-14.15,31.86-17,20.4-32.33,30.14-46.01,29.21-11.37-.34-20.42-8.14-27.15-23.41-3.42-7.41-6.48-15.85-9.2-25.32l-23.09-89.05c-7-19.22-13.71-31.68-20.11-37.35-9.48-10.25-22.34-18.18-38.58-23.81-18.64-6.75-46.58-13.6-83.8-20.56l-8.44-1.65-33.55,167.92c25.57,1.77,45.21,9.48,58.91,23.1,5.82,5.83,11.03,13.74,15.64,23.72.83,1.4,2.96,6.98,6.41,16.76,9.9,33.01,16.48,53.45,19.74,61.3,5.28,14.22,12.15,27.53,20.6,39.92,16.94,25.58,43.45,41.96,79.53,49.14,76.77,12.21,138.13-22.92,184.06-105.39,18.77-34.45,31.82-70.24,39.14-107.38h0Zm0,0"/><path class="cls-16" d="m266.04,1871.81l-9.69-3.66c-18.79-10.14-31.1-28.54-36.93-55.18-5.78-26.81-3.3-55.92,7.44-87.33,11.25-29.71,27.01-51.7,47.27-65.94,6.54-4.56,13.24-7.95,20.12-10.2l10.33-2.4c6.93-.98,13.78-.6,20.57,1.17,20.59,6.3,35,21.78,43.25,46.46,8.25,24.68,8.45,52.91.6,84.72-8.9,31.52-23.03,55.97-42.4,73.34-19.37,17.38-39.56,23.71-60.57,19.01"/><path d="m691.31,2068.08c-27.08,11.95-56.95,15.32-89.61,10.12-36.08-7.18-62.59-23.56-79.53-49.14-8.45-12.39-15.32-25.7-20.6-39.92-3.26-7.85-9.84-28.29-19.74-61.3-3.45-9.77-5.58-15.36-6.41-16.76-4.61-9.98-9.82-17.89-15.64-23.72-13.71-13.63-33.34-21.33-58.91-23.1l28.25-141.36-41.66-7.32-30.49,168.71c28.55,1.02,49.55,8.39,62.98,22.1,9.94,10.66,16.97,21.16,21.09,31.5l4.96,12.33c11.13,35.74,18.49,57.42,22.06,65.04,7.57,16.16,13.83,26.8,18.77,31.94,21.92,25.9,49.11,42.73,81.57,50.49,35.55,6.84,76.51-3.03,122.91-29.61h0Zm0,0"/><path d="m704.94,1856.41c1.44-7.31,1.79-14.84,1.03-22.57-2.06-18.36-9.79-34.08-23.19-47.16-7.72-6.96-19.69-7.62-35.92-1.98-7.05-51.74-15.58-103.02-25.6-153.82l-41.91,10.31,30.18,165.83c37.01-10.32,59.27,3,66.77,39.97,1.4,6.98,1.33,14.33-.19,22.06-.95,4.81-2.47,9.77-4.54,14.88-4.79,10.85-11.94,18.45-21.44,22.81-7.08,3.81-16.81,1.77-29.19-6.12,6.3,10.96,14.25,16.58,23.86,16.86,13.68.93,29.01-8.81,46.01-29.21,7.25-10.14,11.96-20.76,14.15-31.86h0Zm0,0"/><path d="m311.19,1864.2c-14.6,8.54-29.65,11.08-45.15,7.61l-9.69-3.66c-18.79-10.14-31.1-28.54-36.93-55.18-4.09-18.99-4.04-39.15.16-60.45,1.73-8.76,4.16-17.72,7.29-26.88,11.25-29.71,27.01-51.7,47.27-65.94,2.43-1.7,4.89-3.23,7.37-4.61-8.13,1.35-15.36,2.99-21.68,4.93-16.88,5.29-30.58,13.31-41.11,24.05-20.32,22.29-33.37,48.08-39.14,77.36-2.13,10.81-3.27,22.08-3.41,33.83-.45,3.53.61,13.03,3.21,28.48,2.65,12.12,6.56,23.01,11.71,32.66,10.69,19.56,23.98,31.51,39.88,35.85,14.62,4.66,31.47,2.5,50.54-6.48,9.03-4.61,18.93-11.81,29.69-21.59h0Zm0,0"/><path class="cls-19" d="m2228.65,572.48c5.16,9.25,10.71,18.3,16.63,27.16,30.99,46.34,66.66,79.06,107,98.17,45,21.64,92.37,27.33,142.11,17.09,34.16-7.49,60.71-34.02,79.65-79.58-48.9-38.38-96.68-78.53-143.35-120.46-9.38,15.9-19.65,23.69-30.81,23.35-20.08-1.41-37.34-8.92-51.8-22.53-5.99-5.81-10.94-12.22-14.84-19.21-5.93-10.62-9.45-22.61-10.56-35.95-.25-28.53,5.55-47.18,17.39-55.93,9.56-7.62,22.4-7.52,38.54.31,7.95,3.7,16.33,8.49,25.15,14.36l80.83,56.93c19.11,10.88,33.26,16.43,42.46,16.63,14.89,1.81,30.94-.63,48.16-7.31,19.97-7.43,47.62-21.24,82.97-41.41l8.06-4.52-89.25-160.95c-22.19,16.32-43.64,23.66-64.35,22.02-8.82-.73-18.59-3.59-29.31-8.56-1.65-.57-7.28-3.66-16.9-9.28-31.07-20.17-50.67-32.34-58.8-36.52-14.22-7.98-29.09-14.11-44.64-18.39-31.67-9.19-64.78-4.18-99.34,15.02-71.42,43.37-97.27,114.81-77.57,214.34,8.56,41.28,22.75,79.69,42.57,115.21h0Zm0,0"/><path class="cls-19" d="m2682.22,178.71l10.48-3.74c22.45-4.75,45.33,1.77,68.63,19.55,23.37,17.95,41.57,43.53,54.62,76.75,11.43,32.18,13.8,61.14,7.11,86.9-2.19,8.27-5.32,15.72-9.4,22.34l-6.8,9.14c-5,5.62-10.89,10.07-17.67,13.34-21.25,9.15-43.83,6.48-67.75-8-23.91-14.49-43.71-37.49-59.39-69.01-14.62-32.02-20.04-61.88-16.25-89.58,3.79-27.7,15.93-46.93,36.42-57.69"/><path d="m2197.24,313.52c13.89-28.61,36.02-52.14,66.41-70.59,34.56-19.2,67.68-24.21,99.34-15.02,15.54,4.28,30.42,10.41,44.64,18.39,8.13,4.17,27.73,16.34,58.8,36.52,9.62,5.62,15.25,8.71,16.9,9.28,10.72,4.97,20.48,7.83,29.31,8.56,20.71,1.64,42.16-5.7,64.35-22.02l75.13,135.49,39.23-22.97-92.3-159.46c-24.12,19.02-46.45,27.58-66.98,25.68-15.55-1.82-28.62-5.54-39.19-11.16l-12.64-6.66c-33.97-21.55-55.07-34.2-63.3-37.97-17.44-7.97-29.97-12.35-37.59-13.12-35.97-5.99-69.95-.88-101.95,15.32-33.89,19.11-60.6,55.68-80.15,109.72h0Zm0,0"/><path d="m2333.23,496.47c3.9,7,8.85,13.4,14.84,19.21,14.45,13.6,31.72,21.11,51.8,22.53,11.17.34,21.44-7.45,30.81-23.35,41.75,37.5,84.39,73.59,127.92,108.26l27.19-37.59-140.02-114.92c-23.16,34.19-50.66,38.75-82.51,13.66-5.99-4.75-11.05-10.82-15.18-18.21-2.57-4.6-4.78-9.72-6.62-15.35-3.62-12.22-3.05-23.42,1.71-33.6,3.16-8.04,12.55-13.14,28.18-15.28-12.78-4.6-23.21-3.68-31.29,2.77-11.85,8.75-17.64,27.39-17.39,55.93,1.11,13.35,4.63,25.33,10.56,35.95h0Zm0,0"/><path d="m2650.52,216.34c6.03-17.15,16.6-29.69,31.71-37.63l10.48-3.74c22.45-4.75,45.33,1.77,68.63,19.55,16.56,12.72,30.53,29.27,41.9,49.66,4.68,8.38,8.92,17.41,12.72,27.09,11.43,32.18,13.8,61.14,7.11,86.9-.82,3.08-1.76,6.05-2.84,8.9,5.73-6.76,10.51-13.13,14.34-19.12,10.15-16.07,15.8-32.17,16.97-48.29,1.15-32.4-6.08-62.6-21.71-90.61-5.77-10.33-12.67-20.36-20.72-30.1-2.09-3.21-9.56-10.25-22.43-21.11-10.6-8.09-21.37-14.3-32.31-18.62-22.36-8.59-41.56-9.15-57.6-1.66-15.22,6.35-27.53,19.83-36.91,40.45-4.19,10.06-7.3,22.84-9.32,38.34h0Zm0,0"/><path class="cls-6" d="m2568.95,1035.76c1.91-9.67,3.42-19.43,4.55-29.28,5.91-51.53.29-96.22-16.83-134.06-18.91-42.43-49.09-74.99-90.55-97.66-28.74-15.25-63.55-12.41-104.41,8.52,11.59,56.67,21.33,113.92,29.21,171.76,16.23-5.64,28.19-4.98,35.92,1.98,13.4,13.09,21.12,28.81,23.19,47.16.75,7.73.41,15.25-1.03,22.57-2.19,11.11-6.91,21.73-14.15,31.87-17,20.39-32.33,30.13-46.01,29.21-11.37-.34-20.42-8.14-27.16-23.41-3.41-7.41-6.48-15.85-9.2-25.32l-23.09-89.05c-7-19.23-13.71-31.68-20.12-37.36-9.48-10.25-22.33-18.18-38.57-23.81-18.64-6.75-46.58-13.6-83.8-20.56l-8.44-1.65-33.55,167.92c25.57,1.77,45.21,9.48,58.91,23.1,5.82,5.84,11.03,13.74,15.64,23.72.83,1.4,2.97,6.98,6.41,16.76,9.9,33.02,16.48,53.45,19.74,61.31,5.29,14.22,12.15,27.52,20.6,39.92,16.94,25.58,43.45,41.96,79.53,49.14,76.77,12.22,138.12-22.91,184.06-105.39,18.78-34.45,31.82-70.24,39.14-107.38h0Zm0,0"/><path class="cls-6" d="m2010.09,1042.13l-9.69-3.65c-18.79-10.14-31.1-28.53-36.93-55.18-5.77-26.81-3.29-55.91,7.44-87.33,11.25-29.72,27.01-51.69,47.27-65.94,6.53-4.55,13.24-7.95,20.12-10.2l10.33-2.39c6.93-.99,13.79-.59,20.57,1.17,20.58,6.3,35,21.79,43.25,46.46,8.25,24.68,8.45,52.91.61,84.72-8.9,31.52-23.03,55.97-42.4,73.34-19.37,17.37-39.55,23.71-60.56,19.01"/><path d="m2435.36,1238.41c-27.08,11.94-56.95,15.31-89.61,10.12-36.09-7.18-62.59-23.56-79.53-49.14-8.45-12.4-15.32-25.7-20.6-39.92-3.26-7.86-9.84-28.29-19.74-61.31-3.44-9.77-5.58-15.36-6.41-16.76-4.61-9.98-9.82-17.88-15.64-23.72-13.71-13.62-33.34-21.33-58.91-23.1l28.25-141.36-41.66-7.32-30.49,168.71c28.55,1.02,49.55,8.39,62.98,22.1,9.94,10.66,16.96,21.16,21.09,31.51l4.96,12.33c11.13,35.74,18.48,57.42,22.06,65.04,7.58,16.16,13.83,26.8,18.77,31.93,21.92,25.9,49.1,42.73,81.57,50.5,35.54,6.84,76.52-3.03,122.91-29.61h0Zm0,0"/><path d="m2448.99,1026.73c1.44-7.31,1.79-14.84,1.03-22.57-2.07-18.35-9.8-34.07-23.19-47.16-7.72-6.96-19.69-7.62-35.92-1.98-7.05-51.74-15.58-103.01-25.6-153.82l-41.92,10.3,30.18,165.83c37.01-10.32,59.27,3,66.77,39.97,1.39,6.98,1.33,14.33-.2,22.06-.95,4.82-2.46,9.77-4.54,14.88-4.78,10.85-11.93,18.45-21.44,22.81-7.08,3.8-16.81,1.77-29.19-6.12,6.3,10.96,14.25,16.58,23.86,16.87,13.68.92,29.01-8.82,46.01-29.21,7.24-10.14,11.96-20.76,14.15-31.87h0Zm0,0"/><path d="m2055.24,1034.52c-14.6,8.54-29.65,11.08-45.15,7.61l-9.69-3.65c-18.79-10.14-31.1-28.53-36.93-55.18-4.09-19-4.04-39.15.16-60.45,1.73-8.77,4.16-17.72,7.28-26.88,11.25-29.72,27.01-51.69,47.27-65.94,2.43-1.7,4.89-3.23,7.38-4.61-8.14,1.35-15.36,3-21.68,4.94-16.88,5.29-30.58,13.31-41.11,24.05-20.33,22.3-33.37,48.09-39.14,77.36-2.13,10.8-3.27,22.08-3.41,33.83-.45,3.53.61,13.02,3.2,28.47,2.66,12.12,6.56,23.01,11.72,32.66,10.69,19.56,23.98,31.51,39.87,35.85,14.62,4.66,31.47,2.5,50.54-6.48,9.03-4.62,18.93-11.81,29.69-21.59h0Zm0,0"/><path class="cls-1" d="m2763.32,1168.5c-9.86-1.59-19.81-2.78-29.83-3.57-52.42-4.15-97.5,3.13-135.22,21.82-42.32,20.66-74.23,52.4-95.73,95.21-14.42,29.66-10.31,64.82,12.34,105.48,57-13.76,114.66-25.66,172.98-35.7-6.3-16.24-6.05-28.39.72-36.46,12.79-14.04,28.44-22.43,46.96-25.18,7.81-1.04,15.44-.96,22.9.24,11.33,1.82,22.25,6.22,32.78,13.2,21.27,16.49,31.68,31.68,31.23,45.57.06,11.53-7.52,20.98-22.76,28.34-7.38,3.73-15.82,7.13-25.33,10.23l-89.4,26.56c-19.23,7.78-31.6,15.01-37.13,21.71-10.04,9.97-17.62,23.27-22.75,39.93-6.17,19.13-12.12,47.67-17.85,85.63l-1.37,8.6,171.32,28.02c.89-25.97,8-46.14,21.32-60.51,5.7-6.1,13.53-11.67,23.47-16.69,1.39-.89,6.97-3.25,16.75-7.09,33.09-11.21,53.56-18.6,61.41-22.18,14.21-5.86,27.45-13.29,39.71-22.29,25.31-18.08,40.96-45.52,46.96-82.33,9.64-78.21-28.13-139.12-113.32-182.73-35.57-17.8-72.29-29.74-110.18-35.84h0Zm0,0"/><g class="cls-13"><path class="cls-1" d="m2789.66,1734.47l-3.36,9.95c-9.61,19.4-27.8,32.52-54.59,39.38-26.95,6.81-56.53,5.33-88.74-4.43-30.51-10.35-53.34-25.53-68.49-45.54-4.84-6.46-8.53-13.13-11.05-20.02l-2.79-10.38c-1.25-6.99-1.09-13.95.45-20.88,5.65-21.08,20.83-36.24,45.54-45.48,24.7-9.23,53.3-10.44,85.81-3.63,32.25,7.9,57.52,21.34,75.82,40.35,18.29,19,25.43,39.23,21.41,60.68"/><path d="m2973.38,1296.63c13.06,27.01,17.54,57.16,13.44,90.43-5.99,36.81-21.64,64.25-46.96,82.33-12.26,9-25.5,16.43-39.71,22.29-7.84,3.58-28.31,10.97-61.41,22.18-9.78,3.84-15.36,6.2-16.75,7.09-9.95,5.02-17.77,10.59-23.47,16.69-13.32,14.37-20.43,34.54-21.32,60.51l-144.22-23.59-5.93,42.46,172.01,24.9c.02-28.97,6.73-50.5,20.15-64.6,10.44-10.45,20.83-17.94,31.17-22.49l12.32-5.46c35.81-12.55,57.52-20.77,65.11-24.66,16.1-8.25,26.66-14.97,31.69-20.16,25.46-23.12,41.54-51.27,48.25-84.43,5.66-36.26-5.79-77.42-34.36-123.48h0Zm0,0"/></g><path d="m2758.45,1290.35c-7.46-1.2-15.09-1.28-22.9-.24-18.52,2.74-34.17,11.14-46.96,25.18-6.78,8.07-7.02,20.22-.72,36.46-52.17,8.98-103.81,19.45-154.93,31.41l11.93,42.1,166.93-36.47c-11.78-37.13.93-60.15,38.12-69.07,7.02-1.66,14.47-1.86,22.35-.59,4.91.79,9.99,2.15,15.24,4.07,11.16,4.47,19.12,11.44,23.87,20.91,4.11,7.03,2.39,16.97-5.16,29.79,10.88-6.77,16.29-15.03,16.24-24.78.45-13.89-9.96-29.08-31.23-45.57-10.53-6.98-21.46-11.38-32.78-13.2h0Zm0,0"/><path d="m2780.34,1689c9.17,14.49,12.28,29.65,9.32,45.47l-3.36,9.95c-9.61,19.4-27.8,32.52-54.59,39.38-19.1,4.82-39.52,5.48-61.25,1.99-8.94-1.44-18.1-3.58-27.49-6.42-30.51-10.35-53.34-25.53-68.49-45.54-1.8-2.41-3.45-4.84-4.93-7.31h0c1.66,8.2,3.58,15.46,5.77,21.79,5.96,16.91,14.57,30.51,25.83,40.79,23.31,19.8,49.9,32.1,79.77,36.9,11.02,1.77,22.48,2.52,34.4,2.25,3.59.34,13.17-1.09,28.73-4.26,12.19-3.12,23.08-7.46,32.68-13.03,19.43-11.53,31.07-25.42,34.9-41.68,4.2-14.98,1.41-31.97-8.36-50.97-5-8.98-12.64-18.75-22.93-29.31h0Zm0,0"/><path class="cls-2" d="m2717.64,2251.28c-9.86-1.59-19.81-2.78-29.83-3.57-52.42-4.15-97.5,3.13-135.22,21.82-42.32,20.66-74.23,52.4-95.73,95.21-14.42,29.66-10.31,64.82,12.34,105.48,57-13.76,114.66-25.66,172.98-35.7-6.29-16.23-6.05-28.39.73-36.46,12.78-14.04,28.44-22.43,46.96-25.17,7.8-1.04,15.44-.96,22.9.24,11.33,1.82,22.25,6.22,32.79,13.2,21.27,16.49,31.68,31.68,31.23,45.57.06,11.53-7.53,20.98-22.76,28.35-7.38,3.72-15.82,7.13-25.33,10.22l-89.4,26.56c-19.23,7.78-31.61,15.02-37.13,21.71-10.05,9.97-17.62,23.28-22.75,39.93-6.17,19.13-12.13,47.68-17.85,85.63l-1.37,8.61,171.32,28.02c.89-25.96,8-46.14,21.31-60.51,5.7-6.1,13.53-11.66,23.48-16.69,1.39-.89,6.97-3.25,16.75-7.09,33.1-11.21,53.57-18.6,61.41-22.18,14.22-5.86,27.45-13.29,39.71-22.29,25.32-18.07,40.97-45.52,46.96-82.32,9.65-78.22-28.13-139.13-113.32-182.73-35.57-17.8-72.29-29.74-110.17-35.84h0Zm0,0"/><path class="cls-2" d="m2743.98,2817.25l-3.36,9.95c-9.61,19.4-27.81,32.52-54.59,39.38-26.95,6.81-56.53,5.33-88.74-4.43-30.5-10.35-53.33-25.53-68.48-45.54-4.84-6.46-8.53-13.13-11.05-20.02l-2.8-10.37c-1.24-6.98-1.09-13.94.45-20.88,5.65-21.08,20.83-36.24,45.53-45.47,24.71-9.24,53.31-10.45,85.81-3.63,32.25,7.89,57.52,21.34,75.81,40.34,18.29,19,25.43,39.24,21.42,60.68"/><path d="m2927.7,2379.41c13.06,27.01,17.54,57.15,13.44,90.43-5.99,36.81-21.64,64.25-46.96,82.32-12.25,9-25.49,16.43-39.71,22.29-7.84,3.58-28.31,10.97-61.41,22.18-9.78,3.84-15.36,6.2-16.75,7.09-9.95,5.02-17.77,10.59-23.48,16.69-13.32,14.37-20.42,34.54-21.31,60.51l-144.22-23.59-5.93,42.47,172.01,24.89c.02-28.97,6.74-50.5,20.15-64.6,10.44-10.45,20.83-17.94,31.17-22.49l12.32-5.46c35.81-12.55,57.51-20.77,65.1-24.67,16.1-8.25,26.66-14.97,31.69-20.16,25.46-23.13,41.55-51.27,48.26-84.43,5.66-36.26-5.79-77.41-34.37-123.48h0Zm0,0"/><path d="m2712.77,2373.13c-7.46-1.2-15.09-1.28-22.9-.24-18.52,2.75-34.18,11.14-46.96,25.17-6.78,8.07-7.02,20.22-.73,36.46-52.17,8.98-103.81,19.45-154.93,31.41l11.93,42.1,166.93-36.48c-11.77-37.13.93-60.15,38.12-69.07,7.02-1.66,14.47-1.86,22.36-.59,4.91.79,9.99,2.15,15.23,4.07,11.16,4.47,19.12,11.43,23.88,20.91,4.11,7.03,2.39,16.97-5.16,29.79,10.88-6.77,16.29-15.03,16.24-24.78.45-13.89-9.96-29.08-31.23-45.57-10.53-6.98-21.46-11.38-32.79-13.2h0Zm0,0"/><path d="m2734.66,2771.78c9.18,14.49,12.28,29.65,9.32,45.47l-3.36,9.95c-9.61,19.4-27.81,32.52-54.59,39.38-19.1,4.82-39.52,5.49-61.25,1.99-8.94-1.44-18.1-3.58-27.49-6.42-30.5-10.35-53.33-25.53-68.48-45.54-1.8-2.41-3.45-4.84-4.93-7.31,1.65,8.19,3.58,15.45,5.77,21.78,5.96,16.91,14.57,30.51,25.83,40.79,23.31,19.8,49.9,32.1,79.77,36.9,11.02,1.77,22.48,2.53,34.4,2.26,3.59.33,13.17-1.09,28.73-4.26,12.19-3.12,23.08-7.47,32.68-13.03,19.43-11.53,31.07-25.42,34.9-41.68,4.19-14.98,1.41-31.98-8.36-50.97-5-8.99-12.64-18.76-22.93-29.31h0Zm0,0"/></svg>